<?xml version="1.0" standalone="no"?>
<!DOCTYPE svg PUBLIC "-//W3C//DTD SVG 20010904//EN"
 "http://www.w3.org/TR/2001/REC-SVG-20010904/DTD/svg10.dtd">
<svg version="1.0" xmlns="http://www.w3.org/2000/svg"
 width="610.000000pt" height="320.000000pt" viewBox="0 0 610.000000 320.000000"
 preserveAspectRatio="xMidYMid meet">

<g transform="translate(0.000000,320.000000) scale(0.100000,-0.100000)"
fill="#000000" stroke="none">
<path d="M0 2861 l0 -340 63 39 c35 21 84 44 108 51 24 7 80 27 124 45 83 34
227 64 305 64 52 0 237 -41 291 -64 37 -16 79 -52 135 -119 39 -46 55 -46 182
-8 54 17 136 37 184 46 47 8 106 22 129 30 69 25 157 43 295 61 159 21 181 21
232 -5 50 -25 52 -25 52 -4 0 20 43 94 83 145 l30 37 -18 47 c-14 38 -15 53
-6 83 19 63 46 96 102 125 30 14 70 35 89 46 19 10 55 28 80 39 l45 20 -1252
1 -1253 0 0 -339z"/>
<path d="M2638 3179 c34 -11 83 -31 109 -44 76 -41 136 -30 175 33 l20 32
-184 -1 -183 0 63 -20z"/>
<path d="M3466 3160 c-10 -22 -21 -40 -25 -40 -15 0 -61 -53 -61 -70 0 -11 11
-20 30 -24 38 -7 100 -66 100 -93 0 -15 15 -29 53 -48 53 -27 111 -75 102 -83
-3 -3 2 -10 10 -16 8 -6 19 -25 24 -43 8 -28 5 -38 -20 -73 -16 -22 -34 -39
-40 -37 -13 2 -70 -74 -63 -85 3 -4 26 -17 52 -28 54 -24 97 -62 119 -105 20
-38 26 -41 72 -43 25 -1 46 5 61 18 13 11 29 20 37 20 8 0 38 -23 67 -51 45
-45 62 -54 126 -70 46 -12 87 -17 109 -13 l34 7 -6 -50 -6 -50 57 -13 c31 -7
68 -19 81 -25 19 -10 34 -9 70 2 76 23 137 20 166 -7 14 -13 25 -32 25 -42 0
-10 4 -18 8 -18 5 0 15 -18 22 -40 7 -22 17 -40 21 -40 19 0 18 -57 -1 -95
-11 -21 -20 -47 -20 -56 0 -9 -6 -22 -14 -28 -16 -13 -46 -4 -46 14 0 6 -9 20
-21 31 -20 18 -21 18 -47 -12 -15 -17 -39 -36 -54 -44 -16 -7 -28 -21 -28 -30
0 -9 -16 -34 -36 -55 -32 -36 -40 -39 -97 -43 -37 -2 -83 -14 -114 -28 -28
-13 -65 -24 -81 -24 -32 0 -55 -20 -71 -63 -6 -15 -16 -27 -23 -27 -9 0 -8 3
2 10 9 6 10 10 3 10 -6 0 -15 -5 -18 -10 -4 -6 -12 -9 -20 -8 -7 2 -21 -8 -32
-21 -15 -19 -29 -24 -57 -23 -22 1 -44 -5 -53 -13 -16 -17 -37 -10 -26 8 13
21 2 102 -22 155 -25 53 -40 76 -106 156 -20 24 -46 60 -58 80 -19 30 -28 36
-56 36 -39 0 -55 21 -52 66 2 25 -4 31 -40 48 -44 20 -60 48 -38 66 15 13 42
2 64 -24 9 -11 25 -13 61 -9 50 6 65 1 182 -65 45 -26 133 -88 177 -125 38
-32 43 -32 144 9 l67 28 0 58 c0 53 -2 58 -22 58 -27 1 -58 22 -58 39 0 7 7
19 15 27 25 25 19 46 -12 43 -19 -2 -53 12 -101 40 -82 49 -99 50 -190 4 -61
-31 -78 -26 -101 25 -17 37 -19 37 -85 17 -81 -25 -133 -20 -209 21 -71 37
-79 52 -51 92 18 26 32 27 70 7 34 -17 54 -19 54 -5 0 6 -8 10 -19 10 -10 0
-24 7 -31 15 -12 14 0 42 50 122 8 12 11 25 7 29 -8 8 -87 -16 -87 -26 0 -12
-47 -27 -155 -49 -55 -12 -134 -30 -175 -41 -102 -27 -143 -31 -300 -34 -200
-3 -355 16 -386 47 -4 4 -18 7 -30 7 -13 0 -26 5 -29 10 -4 6 -25 20 -47 31
-22 11 -37 15 -33 9 9 -14 -39 -77 -65 -85 -27 -9 -70 19 -70 45 0 26 37 50
80 51 19 1 28 3 20 6 -19 5 -83 89 -90 117 -3 12 -12 21 -20 21 -8 0 -18 4
-21 8 -3 5 -7 -4 -7 -20 -5 -86 -22 -224 -32 -263 -7 -25 -12 -73 -11 -107 1
-57 -1 -63 -28 -82 -36 -26 -53 -26 -143 -1 -93 26 -105 25 -170 -5 -95 -44
-166 -31 -199 38 -23 48 -25 36 18 206 5 22 4 23 -28 16 -34 -7 -93 -45 -116
-75 -7 -8 -19 -46 -28 -84 -9 -38 -23 -85 -31 -105 -14 -33 -14 -37 3 -48 42
-30 63 -57 73 -93 13 -50 26 -59 106 -76 37 -7 71 -19 75 -26 4 -7 11 -56 15
-110 7 -109 14 -119 72 -111 20 3 49 -1 73 -12 34 -16 47 -17 108 -6 39 6 88
11 110 11 28 0 48 8 72 27 34 29 111 45 149 31 12 -5 31 -19 42 -33 11 -14 30
-25 44 -25 17 0 24 -5 24 -20 0 -15 -7 -20 -29 -20 -17 0 -33 5 -36 10 -9 15
-76 12 -105 -5 -14 -8 -35 -14 -47 -15 -19 0 -23 -5 -23 -35 0 -55 -55 -73
-108 -36 -63 44 -137 33 -197 -29 -35 -37 -49 -37 -91 -5 -45 34 -123 44 -159
21 -14 -9 -25 -22 -25 -30 0 -7 -9 -21 -20 -31 -27 -24 -25 -35 4 -35 14 0 27
-4 31 -9 3 -5 19 -12 36 -16 17 -4 33 -14 36 -22 4 -9 14 -13 27 -9 18 4 21 0
22 -27 1 -18 -3 -35 -9 -39 -8 -5 -8 -20 1 -55 12 -43 11 -49 -4 -60 -10 -7
-26 -13 -35 -13 -10 0 -21 -5 -24 -10 -4 -6 -15 -8 -25 -5 -10 3 -21 2 -24 -3
-3 -5 -18 -7 -32 -4 -19 3 -25 1 -20 -7 4 -6 14 -11 22 -11 8 0 14 -4 14 -8 0
-14 -213 20 -235 38 -23 19 -77 30 -91 19 -9 -8 -23 -7 -46 0 -18 6 -76 18
-128 27 -234 37 -293 49 -267 52 44 5 31 16 -51 40 -105 32 -124 40 -117 52 4
6 16 5 33 -1 15 -6 27 -10 27 -9 0 1 8 -2 18 -6 31 -11 31 4 0 34 -15 16 -29
38 -30 48 -1 16 7 20 55 22 61 3 89 17 56 27 -10 4 -30 12 -44 18 -43 19 90
25 404 17 43 -1 82 2 87 7 4 4 11 21 15 37 l7 28 -54 -6 c-30 -4 -74 -8 -99
-9 l-45 -2 2 36 c2 32 -1 37 -32 49 -47 18 -64 59 -56 130 4 30 10 61 14 68 5
7 10 33 13 59 2 25 5 47 7 48 1 1 21 16 45 34 30 23 42 40 41 55 -2 11 7 40
19 63 28 53 29 106 2 133 -23 23 -33 24 -61 10 -10 -6 -45 -15 -76 -21 -67
-13 -96 -26 -140 -66 -17 -15 -43 -38 -58 -51 -15 -13 -24 -30 -21 -38 3 -8 1
-14 -5 -14 -6 0 -9 -6 -6 -14 8 -19 -10 -32 -56 -40 -21 -4 -53 -16 -70 -27
-18 -10 -39 -19 -48 -19 -9 0 -37 -16 -63 -36 -37 -28 -62 -38 -114 -46 -37
-5 -83 -14 -102 -20 -30 -10 -88 -16 -152 -18 -17 0 -18 -28 -18 -442 l0 -441
123 6 c67 4 143 9 169 13 44 6 50 4 75 -23 16 -17 44 -38 63 -48 50 -26 118
-85 123 -107 5 -18 7 -18 30 -3 13 8 31 13 40 9 22 -8 47 -66 47 -109 0 -54
15 -75 53 -75 46 0 65 18 69 65 3 37 5 40 33 40 29 0 30 -2 33 -50 5 -72 42
-91 62 -30 24 72 77 87 123 36 17 -19 40 -32 64 -36 21 -4 51 -11 66 -17 26
-10 31 -8 58 21 28 31 33 33 82 27 28 -3 97 -9 152 -15 55 -5 109 -12 120 -16
30 -9 59 26 52 64 -5 25 0 34 41 68 66 55 69 57 145 64 58 5 73 11 100 37 18
17 44 34 60 37 15 4 30 11 33 16 3 5 16 9 29 9 15 0 33 12 49 33 47 61 27 90
-40 62 -37 -15 -40 -15 -52 2 -7 10 -28 39 -47 66 -19 26 -35 52 -35 57 0 6
-6 10 -12 10 -17 1 63 30 82 30 8 0 22 13 31 29 19 33 53 42 112 28 61 -14
328 -8 347 8 28 23 79 45 107 45 29 0 56 12 53 24 -1 4 0 20 4 36 4 22 11 30
26 30 16 0 28 -15 50 -64 30 -65 44 -76 99 -76 14 0 33 7 42 16 32 29 99 14
99 -22 0 -7 14 -23 31 -35 17 -12 39 -41 49 -65 28 -65 59 -101 100 -118 21
-8 40 -22 43 -30 8 -20 -3 -20 -40 -2 -15 8 -43 20 -60 27 -18 6 -42 26 -54
45 -11 19 -25 32 -30 28 -5 -3 -9 -31 -9 -63 0 -44 -5 -64 -20 -81 -11 -13
-20 -31 -20 -41 0 -22 36 -44 45 -29 7 11 48 14 58 4 10 -10 -20 -34 -42 -34
-16 0 -21 -6 -21 -25 0 -32 -43 -54 -87 -45 -32 7 -67 39 -78 72 -7 20 -35 32
-48 19 -6 -6 5 -26 31 -56 49 -56 60 -96 38 -130 -17 -26 -54 -33 -73 -14 -6
6 -42 15 -80 19 -37 4 -80 11 -95 15 -27 7 -27 6 -21 -32 3 -21 19 -53 35 -71
31 -36 34 -49 16 -87 -23 -51 -82 -45 -121 14 -33 50 -111 101 -154 101 -18 0
-36 1 -40 2 -5 1 -10 -11 -13 -27 -4 -24 -11 -31 -35 -35 -33 -6 -41 -33 -12
-38 9 -2 17 1 17 7 0 6 12 11 27 11 26 0 27 -1 8 -14 -11 -7 -35 -17 -53 -21
-18 -4 -45 -13 -60 -21 -35 -18 -56 -18 -94 2 -28 14 -35 15 -82 0 -28 -8 -75
-18 -104 -22 -35 -4 -57 -13 -66 -26 -19 -27 -70 -39 -107 -26 -24 8 -45 7
-97 -8 -37 -10 -85 -18 -107 -18 -34 -1 -46 -8 -85 -48 -40 -42 -51 -48 -87
-48 -23 0 -53 4 -67 10 -14 5 -81 15 -151 22 -110 11 -123 14 -102 24 13 7 57
16 97 21 44 5 75 13 78 21 5 16 -57 42 -102 42 -20 0 -58 9 -86 20 -28 11 -56
18 -61 15 -5 -4 -9 -25 -9 -49 0 -59 -18 -80 -59 -71 -17 4 -39 18 -47 31 -12
17 -25 24 -49 24 -18 0 -52 7 -75 15 -58 21 -67 19 -75 -12 -13 -52 -59 -82
-96 -62 -22 11 -23 56 -2 52 7 -2 17 6 23 18 9 16 8 26 -5 45 -8 13 -19 24
-24 24 -11 0 -41 -34 -41 -47 0 -14 -62 -53 -83 -53 -8 0 -27 -6 -43 -14 -15
-8 -40 -12 -55 -9 -23 4 -28 1 -31 -18 -2 -16 -10 -24 -24 -25 -12 -1 -33 -4
-47 -8 -25 -6 -26 -4 -24 29 2 35 0 36 -53 56 -77 28 -96 32 -125 25 -24 -6
-25 -8 -25 -100 l0 -94 132 -131 133 -131 1392 0 1392 0 6 21 c11 33 8 84 -5
109 -7 13 -36 48 -66 79 -30 31 -54 61 -54 68 0 23 49 123 61 123 9 0 9 4 -1
14 -15 19 -10 76 9 99 18 22 28 22 34 0 3 -14 6 -11 11 10 6 19 15 27 31 27
13 0 34 4 47 9 13 4 32 5 42 1 12 -4 27 -1 37 8 20 17 16 34 -5 26 -7 -3 -20
5 -28 18 -17 26 -67 30 -107 9 -31 -17 -39 -7 -31 40 10 53 29 71 82 78 36 5
46 11 60 39 26 52 47 70 91 78 30 5 55 19 90 53 26 25 58 51 70 58 27 15 77
16 111 3 20 -7 29 -6 38 7 45 57 90 92 127 98 54 9 61 3 50 -42 -5 -21 -9 -58
-9 -83 -1 -32 -4 -39 -9 -25 -7 18 -10 17 -39 -15 -18 -19 -32 -38 -32 -43 0
-9 -23 -7 -113 9 -25 4 -43 2 -54 -7 -9 -8 -27 -14 -41 -14 -14 0 -27 -6 -29
-12 -3 -7 2 -13 11 -13 23 0 27 -15 20 -68 -5 -37 -10 -48 -25 -49 -10 -1 -19
4 -19 12 0 18 -10 23 -57 29 -35 5 -42 3 -46 -14 -3 -11 -19 -25 -36 -31 -38
-13 -39 -27 -5 -54 28 -23 46 -83 32 -109 -5 -9 -7 -34 -3 -54 4 -20 7 -47 7
-59 0 -31 13 -29 39 8 28 40 46 25 28 -24 -19 -53 -9 -64 63 -71 65 -7 208
-30 288 -46 25 -5 78 -15 118 -22 39 -7 72 -16 72 -20 0 -8 -16 -12 -33 -9 -5
1 -34 3 -65 6 -31 2 -79 7 -107 11 -27 4 -61 8 -75 8 -14 0 -27 4 -30 8 -6 8
-179 38 -218 38 -15 0 -22 -5 -19 -12 2 -8 18 -12 41 -10 34 3 43 -2 99 -58
53 -52 66 -60 87 -55 47 13 123 5 158 -17 25 -15 42 -19 70 -14 20 4 96 15
169 26 209 30 413 90 522 152 83 48 155 135 144 176 -3 12 9 35 31 63 20 24
46 67 59 94 13 28 35 59 47 70 13 11 20 14 16 7 -10 -17 21 -27 39 -12 12 10
13 16 4 26 -11 14 4 19 50 16 8 0 -7 20 -33 44 -44 42 -58 76 -37 89 6 3 7 27
4 54 -6 56 2 65 52 55 31 -6 64 -32 113 -89 7 -8 28 -15 47 -15 18 0 45 -4 58
-9 24 -9 58 -58 72 -102 4 -13 25 -44 46 -68 23 -26 41 -58 45 -80 3 -20 10
-49 16 -66 15 -45 30 -154 28 -204 -1 -37 1 -42 13 -32 10 8 22 8 39 2 14 -5
61 -10 104 -10 45 0 80 -5 82 -11 2 -5 25 -10 52 -10 26 0 64 -7 83 -15 20 -8
51 -14 69 -13 94 4 168 -2 168 -16 0 -16 72 -28 81 -13 8 11 29 1 29 -14 0 -5
-8 -9 -17 -10 -10 -1 1 -5 25 -11 25 -5 42 -15 42 -24 0 -8 5 -14 10 -14 7 0
10 144 10 411 l0 411 -97 -6 c-54 -4 -113 -8 -131 -10 -18 -1 -35 1 -38 6 -3
4 -15 8 -26 8 -12 0 -18 3 -15 7 4 3 2 12 -4 20 -9 10 -25 12 -60 7 -34 -5
-49 -3 -49 5 0 20 -47 36 -65 21 -8 -7 -15 -9 -15 -4 0 5 -14 10 -30 11 -22 2
-30 -2 -30 -14 0 -12 -6 -14 -27 -8 -16 4 -38 7 -50 8 -33 3 -28 30 7 45 33
15 41 42 11 42 -10 0 -24 6 -30 14 -17 21 -203 52 -236 40 -20 -8 -19 -31 3
-43 16 -10 16 -10 0 -11 -9 0 -28 5 -42 12 -23 10 -29 8 -50 -15 -14 -15 -30
-27 -36 -27 -6 0 -8 -5 -5 -10 4 -7 -2 -9 -17 -6 -12 3 -34 8 -48 10 -37 6
-169 75 -217 113 -23 18 -47 33 -53 33 -15 0 -4 -82 16 -122 16 -31 19 -51 4
-28 -8 12 -10 12 -10 1 0 -7 -22 7 -49 32 -48 45 -97 66 -168 72 -53 4 -295
135 -249 135 10 0 38 -12 63 -27 27 -15 59 -26 75 -25 15 1 28 -3 28 -8 0 -17
110 -64 121 -53 6 6 -9 18 -43 31 -42 17 -49 22 -33 27 12 4 30 29 45 63 13
31 39 75 57 99 18 24 33 46 33 50 0 3 14 24 30 47 17 23 49 67 71 99 22 31 44
57 49 57 4 0 13 -13 19 -30 15 -44 35 -39 28 8 -3 20 -8 46 -11 57 -10 34 219
275 245 259 5 -3 9 -30 9 -60 0 -39 4 -54 14 -54 14 0 26 42 26 96 0 55 4 57
202 104 126 30 216 10 195 -43 -12 -32 -88 -62 -155 -62 l-63 0 -26 -64 -25
-63 22 -30 c15 -20 20 -40 18 -65 -4 -46 25 -69 47 -39 8 10 16 24 18 30 3 6
18 -2 35 -18 29 -27 33 -28 62 -16 17 7 39 23 49 36 11 13 24 24 30 24 28 0
70 -32 79 -60 8 -20 18 -30 32 -30 11 0 32 -7 45 -16 39 -26 64 -15 87 39 l21
48 -23 24 c-16 17 -21 31 -16 49 5 19 1 28 -14 36 -28 15 -25 46 5 66 20 13
40 16 90 11 76 -6 95 -18 95 -60 0 -24 11 -41 46 -74 58 -54 55 -78 -9 -68
-52 9 -65 19 -69 53 -2 20 -11 28 -37 35 -18 4 -40 6 -47 3 -23 -9 -17 -50 9
-61 17 -8 21 -17 19 -43 -4 -41 13 -64 43 -56 17 4 25 1 29 -14 11 -35 34 -33
62 3 14 19 33 35 40 35 8 0 19 11 24 24 7 18 14 22 34 19 26 -5 26 -5 26 61 0
59 -2 66 -20 66 -11 0 -27 11 -36 25 -9 13 -31 34 -49 45 -27 17 -34 28 -37
58 -3 31 -7 37 -29 40 -16 2 -35 -6 -53 -23 -31 -29 -71 -32 -105 -9 -18 13
-39 15 -92 12 -76 -6 -104 9 -97 54 3 21 9 23 78 28 53 4 76 9 78 19 2 8 -3
18 -10 22 -10 7 -10 9 0 9 18 0 15 14 -13 44 -19 20 -33 26 -67 26 -52 0 -60
-5 -78 -48 -12 -31 -16 -33 -44 -28 -16 4 -41 14 -54 24 -73 51 -121 56 -178
17 -46 -31 -62 -29 -83 10 -48 87 -75 105 -103 67 -17 -24 -105 -72 -132 -72
-12 0 -32 14 -47 33 -16 19 -44 39 -69 47 -39 13 -45 12 -86 -10 l-45 -23 -15
21 c-29 41 -46 52 -83 52 -52 0 -70 17 -73 70 -3 41 -6 45 -31 48 -15 2 -32
12 -38 23 -17 33 -1 146 31 215 26 54 33 63 78 81 28 12 60 35 73 52 20 27 29
31 68 31 64 0 92 17 108 65 15 46 54 68 90 52 21 -9 29 -49 38 -209 3 -54 10
-76 33 -110 38 -56 46 -77 47 -113 l0 -30 90 -5 c71 -4 99 -10 133 -30 55 -31
62 -58 27 -104 l-27 -35 34 9 c18 6 69 10 113 10 47 0 106 7 140 17 33 10 89
18 125 17 37 0 71 5 80 12 8 7 26 22 39 32 l25 19 -21 34 c-20 35 -20 35 0 61
28 38 31 82 7 120 -26 42 -25 64 1 79 35 18 86 4 117 -33 57 -70 136 -148 149
-148 10 0 13 19 13 75 0 61 -3 75 -15 75 -9 0 -18 7 -22 15 -6 17 -73 55 -97
55 -8 0 -16 3 -18 8 -7 16 -68 52 -88 52 -24 0 -50 51 -50 97 0 59 29 166 52
190 55 60 109 61 192 3 l46 -31 0 61 0 60 -277 0 -278 0 38 -25 c62 -43 41
-97 -48 -125 -22 -7 -55 -21 -73 -32 -21 -12 -53 -18 -91 -18 -68 0 -88 15
-102 81 -9 39 -8 45 21 81 l31 38 -350 0 c-192 0 -351 -3 -353 -7 -6 -15 -96
-73 -144 -93 -59 -26 -139 -25 -165 1 -10 10 -23 36 -29 58 -11 40 -12 41 -55
41 -43 0 -45 -2 -87 -62 -48 -72 -72 -99 -109 -122 -25 -16 -28 -15 -84 14
-31 16 -65 30 -74 30 -10 0 -30 14 -46 30 -16 17 -39 30 -51 30 -13 0 -26 5
-29 10 -3 6 -17 10 -31 10 -13 0 -24 5 -24 11 0 5 -5 7 -11 3 -8 -5 -10 1 -7
20 l5 26 -96 0 -97 0 -18 -40z m1734 1 c0 -13 -37 -24 -51 -15 -8 4 -7 9 2 15
19 12 49 11 49 0z m-1529 -182 c10 0 10 -2 2 -6 -7 -2 -13 -14 -13 -26 0 -12
-4 -26 -8 -32 -12 -16 -52 -36 -52 -25 0 5 -18 14 -41 20 -33 9 -39 15 -35 31
4 10 8 27 11 37 3 10 20 26 38 34 31 15 33 15 58 -8 14 -13 32 -24 40 -25z
m-1341 -679 c28 -28 25 -57 -9 -91 -22 -22 -39 -29 -68 -29 -22 0 -44 5 -51
12 -20 20 -14 56 11 69 12 7 35 23 50 35 35 29 42 29 67 4z m224 -62 c1 -2 21
-28 44 -59 42 -55 71 -141 59 -173 -3 -8 -27 -21 -52 -27 -48 -12 -53 -22 -30
-53 51 -68 -27 -90 -94 -27 -38 35 -40 69 -6 101 35 33 41 78 17 133 -11 24
-25 48 -31 51 -17 11 -13 44 7 56 14 9 81 7 86 -2z m2549 -88 c7 -26 -1 -36
-178 -224 -60 -65 -114 -125 -119 -134 -5 -9 -18 -23 -28 -30 -10 -7 -16 -17
-13 -22 3 -5 -6 -17 -20 -28 -14 -11 -25 -24 -25 -29 0 -6 -10 -18 -21 -29
-26 -23 -187 -238 -213 -285 -11 -19 -19 -40 -17 -46 1 -7 -3 -13 -9 -13 -6 0
-8 5 -4 11 5 9 -2 10 -22 6 -16 -3 -23 -4 -16 -1 6 3 12 10 12 15 0 6 6 17 13
25 6 8 17 20 22 27 22 25 106 151 94 140 -28 -27 -26 -10 8 85 35 98 70 153
84 131 4 -8 9 -4 13 9 6 19 59 71 141 140 24 20 47 31 58 28 12 -3 22 3 29 20
6 13 15 24 19 24 16 0 101 96 131 148 31 55 52 66 61 32z m-2113 -112 c-1 -7
-7 -31 -15 -53 -8 -22 -15 -58 -15 -81 0 -40 -14 -70 -36 -76 -17 -5 -74 71
-74 99 0 33 85 123 116 123 13 0 24 -6 24 -12z m2685 -60 c30 -14 31 -27 5
-61 -11 -14 -20 -30 -20 -35 0 -5 -7 -15 -15 -22 -24 -20 -44 3 -27 31 11 17
11 25 -3 46 -13 19 -14 27 -4 39 14 17 30 18 64 2z m-125 -44 c0 -25 -30 -74
-45 -74 -26 0 -56 39 -53 68 2 21 10 28 33 33 35 6 65 -6 65 -27z m-3182 -106
c-5 -15 -48 -24 -48 -10 0 14 12 22 33 22 10 0 17 -5 15 -12z m390 -15 c-3
-30 -23 -41 -31 -18 -9 21 2 45 20 45 10 0 13 -9 11 -27z m2732 -3 c0 -5 -4
-10 -10 -10 -5 0 -10 5 -10 10 0 6 5 10 10 10 6 0 10 -4 10 -10z m-2793 -48
c15 -44 16 -52 5 -52 -16 0 -45 67 -38 85 8 22 16 14 33 -33z m3013 17 c17
-31 5 -51 -27 -47 -31 3 -42 30 -23 53 17 21 37 18 50 -6z m-2330 -104 c-13
-14 -26 -23 -28 -20 -7 7 29 45 41 45 6 0 0 -11 -13 -25z m93 -31 c8 -8 -11
-57 -26 -66 -20 -13 -57 -9 -57 6 0 36 62 81 83 60z m-283 -10 c0 -20 -25 -44
-56 -54 -40 -13 -47 -11 -38 14 10 27 94 63 94 40z m118 -62 c2 -14 -2 -22
-11 -22 -19 0 -40 26 -32 40 11 18 40 6 43 -18z m-2815 -59 c-7 -2 -19 -2 -25
0 -7 3 -2 5 12 5 14 0 19 -2 13 -5z m2735 -40 c6 -19 -43 -16 -59 3 -11 14 -9
15 21 12 18 -2 35 -9 38 -15z m45 -10 c-7 -2 -19 -2 -25 0 -7 3 -2 5 12 5 14
0 19 -2 13 -5z m-2963 -17 c0 -3 -4 -8 -10 -11 -5 -3 -10 -1 -10 4 0 6 5 11
10 11 6 0 10 -2 10 -4z m197 -2 c-3 -3 -12 -4 -19 -1 -8 3 -5 6 6 6 11 1 17
-2 13 -5z m-261 -31 c-10 -10 -19 5 -10 18 6 11 8 11 12 0 2 -7 1 -15 -2 -18z
m3800 -38 c-32 -13 -70 -34 -85 -47 -22 -19 -21 -18 4 11 33 37 77 60 115 60
17 0 7 -7 -34 -24z m-2366 -17 c0 -13 -32 -6 -37 9 -3 7 3 9 16 6 12 -3 21
-10 21 -15z m2580 -32 c37 -11 46 -18 51 -43 3 -16 9 -34 12 -40 10 -15 -154
-3 -180 13 -32 20 -29 29 18 47 23 9 38 21 34 27 -8 13 11 13 65 -4z m-2584
-46 c12 0 113 -114 108 -122 -9 -13 -34 -9 -40 7 -4 8 -18 15 -34 15 -32 0
-110 71 -110 100 0 10 -3 26 -6 35 -6 13 2 11 34 -9 23 -14 44 -26 48 -26z
m-991 -61 c114 -23 131 -26 235 -38 87 -10 130 -20 130 -31 0 -10 -87 -2 -109
9 -9 5 -71 8 -136 6 -114 -3 -229 11 -280 34 -11 5 -36 14 -55 19 -33 10 -33
10 15 6 28 -2 57 1 65 6 19 13 18 13 135 -11z m885 -77 c0 -10 5 -23 12 -30 9
-9 6 -12 -15 -12 -15 0 -27 5 -27 10 0 6 -7 10 -15 10 -15 0 -21 21 -8 33 3 4
17 7 30 7 15 0 23 -6 23 -18z m-440 -2 c12 -8 9 -10 -12 -10 -16 0 -28 5 -28
10 0 13 20 13 40 0z m155 -20 c33 -5 40 -8 20 -9 -51 -2 -135 11 -135 21 0 6
14 7 33 2 17 -4 55 -10 82 -14z m429 5 c19 -15 15 -52 -5 -40 -6 4 -8 13 -5
21 4 10 -2 14 -19 14 -14 0 -25 5 -25 10 0 15 32 12 54 -5z m161 -60 c0 -5
-10 -11 -22 -13 -16 -2 -23 2 -23 13 0 11 7 15 23 13 12 -2 22 -7 22 -13z
m3732 -49 c-4 -9 -11 -16 -18 -16 -6 0 -8 7 -5 16 3 9 6 21 6 27 0 8 3 8 11 0
7 -7 9 -19 6 -27z m-4787 -90 c0 -3 -4 -8 -10 -11 -5 -3 -10 -1 -10 4 0 6 5
11 10 11 6 0 10 -2 10 -4z m3819 -71 c16 -18 21 -32 17 -49 -7 -27 -91 -106
-112 -106 -32 0 0 119 35 132 12 4 21 16 21 28 0 26 10 25 39 -5z m-899 -44
c0 -11 12 -53 27 -93 30 -82 39 -180 16 -171 -9 4 -11 0 -7 -11 3 -9 10 -16
15 -16 5 0 9 -4 9 -9 0 -4 -22 -6 -48 -3 -51 4 -78 -12 -67 -40 6 -15 100 -43
120 -36 6 1 10 -1 10 -7 0 -6 -26 -9 -62 -8 -35 0 -63 -3 -63 -9 0 -5 4 -7 9
-4 5 3 11 -1 14 -8 4 -11 20 -14 56 -13 40 2 53 6 62 24 13 24 46 37 55 21 4
-6 24 -8 49 -5 40 6 43 5 38 -14 -3 -11 -12 -23 -19 -26 -19 -7 -18 -33 1 -33
8 0 15 -7 15 -15 0 -20 16 -19 24 2 5 12 9 14 18 5 23 -23 18 -42 -12 -42 -16
0 -35 -3 -44 -6 -10 -4 -17 2 -21 19 -5 17 -12 24 -22 20 -8 -3 -27 4 -43 16
-16 11 -37 21 -47 21 -17 -1 -17 -2 1 -15 28 -21 17 -25 -34 -13 -25 6 -57 10
-72 9 -16 -1 -28 3 -28 8 0 6 -19 15 -41 21 -33 9 -44 9 -50 -2 -7 -10 -9 -9
-9 5 0 12 -6 17 -17 16 -26 -4 -83 11 -83 22 0 5 -9 9 -20 9 -11 0 -23 7 -26
15 -4 8 -10 13 -14 10 -15 -9 -59 44 -66 80 -8 46 18 108 60 140 17 13 82 46
144 74 62 28 123 58 135 66 28 20 37 19 37 -4z m-1370 -271 c0 -5 -7 -10 -15
-10 -8 0 -15 5 -15 10 0 6 7 10 15 10 8 0 15 -4 15 -10z m1690 -136 c0 -2 -16
-4 -36 -4 -19 0 -33 4 -30 8 5 8 66 4 66 -4z m55 -14 c3 -5 -1 -10 -9 -10 -9
0 -16 5 -16 10 0 6 4 10 9 10 6 0 13 -4 16 -10z m55 -25 c16 -19 0 -19 -26 0
-16 12 -16 14 -3 15 9 0 22 -7 29 -15z m-3230 -19 c0 -3 -4 -8 -10 -11 -5 -3
-10 -1 -10 4 0 6 5 11 10 11 6 0 10 -2 10 -4z m35 -14 c-3 -3 -11 0 -18 7 -9
10 -8 11 6 5 10 -3 15 -9 12 -12z m583 3 c-2 -1 -21 -5 -43 -9 -35 -6 -38 -5
-22 7 9 8 28 12 42 9 14 -2 25 -6 23 -7z m-918 -15 c0 -5 -4 -10 -10 -10 -5 0
-10 5 -10 10 0 6 5 10 10 10 6 0 10 -4 10 -10z"/>
<path d="M4000 319 c0 -5 5 -7 10 -4 6 3 10 8 10 11 0 2 -4 4 -10 4 -5 0 -10
-5 -10 -11z"/>
<path d="M3120 3085 c-7 -8 -10 -22 -6 -30 3 -8 2 -15 -2 -15 -4 0 -8 -9 -9
-20 -2 -17 1 -18 18 -10 11 6 19 21 19 35 0 13 5 27 10 30 11 7 4 25 -9 25 -5
0 -14 -7 -21 -15z"/>
<path d="M2590 3032 c0 -5 -13 -22 -30 -39 -25 -25 -40 -31 -91 -36 -54 -5
-65 -10 -96 -42 -19 -20 -41 -34 -48 -31 -8 3 -17 -7 -24 -26 -10 -29 -8 -35
18 -62 16 -17 43 -55 61 -84 35 -57 41 -60 145 -65 39 -2 91 -9 117 -17 41
-12 55 -12 90 -1 24 8 61 14 83 15 53 2 61 8 91 72 32 67 49 75 169 77 77 2
90 5 93 20 2 10 -3 17 -11 17 -8 0 -25 23 -38 50 -20 43 -27 50 -44 44 -11 -4
-50 -6 -86 -5 l-66 2 -11 -53 c-6 -29 -14 -69 -17 -88 -6 -33 -8 -35 -51 -38
-42 -3 -45 -1 -59 31 -9 22 -12 51 -9 80 7 58 -12 71 -88 58 -5 0 -8 -8 -8
-16 0 -20 -46 -20 -54 1 -9 24 -7 44 4 44 6 0 10 -7 10 -16 0 -10 7 -14 23
-12 16 2 21 9 19 23 -2 11 -4 33 -3 48 0 23 -5 29 -30 34 -16 3 -32 10 -35 14
-7 11 -24 12 -24 1z"/>
<path d="M3266 2921 c-4 -7 -5 -15 -2 -18 9 -9 19 4 14 18 -4 11 -6 11 -12 0z"/>
<path d="M4789 2497 c-19 -18 -24 -28 -18 -44 10 -26 56 -63 81 -63 10 0 41
-11 68 -25 87 -44 132 -27 110 40 -7 20 -19 39 -29 41 -32 10 -86 39 -103 57
-25 24 -78 21 -109 -6z"/>
<path d="M4075 2210 c-4 -6 5 -10 19 -10 14 0 26 5 26 10 0 6 -9 10 -19 10
-11 0 -23 -4 -26 -10z"/>
<path d="M4176 2131 c-4 -5 -2 -12 3 -15 5 -4 12 -2 15 3 4 5 2 12 -3 15 -5 4
-12 2 -15 -3z"/>
<path d="M4366 2065 c-14 -11 -17 -21 -11 -42 4 -15 9 -49 12 -75 5 -45 7 -48
34 -48 53 0 63 53 24 130 -28 54 -31 56 -59 35z"/>
<path d="M175 2060 c-13 -20 12 -35 42 -24 15 5 27 14 27 19 1 14 -61 18 -69
5z"/>
<path d="M0 1984 c0 -30 2 -34 14 -25 8 7 12 21 9 32 -9 35 -23 31 -23 -7z"/>
<path d="M6066 2011 c-9 -14 4 -41 20 -41 8 0 14 10 14 25 0 25 -23 35 -34 16z"/>
<path d="M5157 1809 c-3 -12 0 -22 9 -26 18 -6 19 -5 28 25 6 18 3 22 -12 22
-11 0 -22 -9 -25 -21z"/>
<path d="M5020 1665 c-14 -17 -46 -20 -55 -5 -3 6 -12 10 -19 10 -10 0 -13
-16 -12 -57 1 -64 9 -83 33 -83 13 0 15 8 10 41 -5 41 -5 41 24 35 23 -4 32
-1 45 19 26 39 3 74 -26 40z"/>
<path d="M5860 1545 c-5 -14 -18 -28 -27 -32 -10 -4 -32 -17 -49 -30 -17 -13
-36 -23 -42 -23 -6 0 -16 -9 -22 -20 -14 -27 -29 -25 -40 4 -13 35 -30 37 -85
6 -67 -37 -108 -45 -125 -25 -19 23 -145 21 -159 -2 -14 -27 4 -50 46 -58 20
-3 62 -19 93 -35 74 -38 130 -51 220 -55 97 -4 140 -13 165 -35 11 -10 37 -21
57 -25 33 -6 40 -4 65 23 18 20 42 33 68 37 78 13 75 10 73 81 -2 70 1 68 -80
79 l-48 6 16 30 c19 37 9 53 -51 80 -53 25 -64 24 -75 -6z"/>
<path d="M1218 1552 c-21 -4 -24 -32 -4 -32 7 0 35 -10 61 -21 46 -20 49 -20
61 -4 18 25 6 45 -26 45 -16 0 -39 4 -52 8 -13 5 -31 7 -40 4z"/>
<path d="M5110 1534 c-14 -7 -34 -14 -45 -14 -27 0 -45 -18 -38 -37 10 -25
150 -87 170 -75 5 4 12 26 16 49 5 38 2 45 -25 68 -33 28 -42 29 -78 9z"/>
<path d="M750 1444 c0 -8 5 -12 10 -9 6 4 8 11 5 16 -9 14 -15 11 -15 -7z"/>
<path d="M660 1430 c0 -5 5 -10 10 -10 6 0 10 5 10 10 0 6 -4 10 -10 10 -5 0
-10 -4 -10 -10z"/>
<path d="M647 1354 c3 -8 11 -14 19 -14 21 0 17 17 -5 23 -14 3 -18 1 -14 -9z"/>
<path d="M4997 1199 c-10 -6 -24 -8 -32 -5 -9 3 -12 0 -8 -10 3 -7 11 -14 18
-14 7 0 19 -2 27 -5 7 -3 18 6 25 20 12 28 2 33 -30 14z"/>
<path d="M2400 1171 c0 -5 7 -12 16 -15 22 -9 24 -8 24 9 0 8 -9 15 -20 15
-11 0 -20 -4 -20 -9z"/>
<path d="M5065 1160 c4 -6 11 -8 16 -5 14 9 11 15 -7 15 -8 0 -12 -5 -9 -10z"/>
<path d="M5768 1149 c-10 -5 -18 -17 -18 -25 0 -8 5 -12 10 -9 6 4 17 2 24 -4
19 -16 68 7 64 28 -4 19 -55 26 -80 10z"/>
<path d="M2557 1083 c-13 -12 -7 -23 13 -23 11 0 20 7 20 15 0 15 -21 21 -33
8z"/>
<path d="M2825 1059 c-10 -14 37 -68 59 -69 12 0 -2 63 -17 72 -17 11 -35 10
-42 -3z"/>
<path d="M2240 1021 c0 -10 36 -21 44 -14 3 3 3 10 0 14 -7 12 -44 12 -44 0z"/>
<path d="M2370 970 c0 -5 5 -10 10 -10 6 0 10 5 10 10 0 6 -4 10 -10 10 -5 0
-10 -4 -10 -10z"/>
<path d="M4830 890 c0 -5 5 -10 10 -10 6 0 10 5 10 10 0 6 -4 10 -10 10 -5 0
-10 -4 -10 -10z"/>
<path d="M4861 884 c0 -11 3 -14 6 -6 3 7 2 16 -1 19 -3 4 -6 -2 -5 -13z"/>
<path d="M4954 837 c-22 -11 -21 -12 19 -69 44 -62 63 -74 53 -32 -4 15 -10
40 -13 58 -6 32 -21 57 -32 55 -3 -1 -16 -6 -27 -12z"/>
<path d="M2300 781 c0 -22 29 -36 43 -22 15 15 0 41 -23 41 -13 0 -20 -7 -20
-19z"/>
<path d="M500 741 c0 -30 19 -45 45 -35 9 4 15 19 15 35 0 26 -4 29 -30 29
-26 0 -30 -3 -30 -29z"/>
<path d="M1877 749 c-10 -6 -28 -9 -40 -7 -29 3 -47 -9 -47 -32 0 -16 5 -19
28 -14 15 2 61 8 102 12 66 6 75 9 75 27 0 17 -7 20 -50 22 -27 2 -58 -2 -68
-8z"/>
<path d="M2170 710 c8 -5 24 -10 35 -10 17 0 17 2 5 10 -8 5 -24 10 -35 10
-17 0 -17 -2 -5 -10z"/>
<path d="M357 700 c-26 -11 -147 -92 -147 -99 0 -4 -16 -24 -37 -44 -36 -37
-36 -37 -17 -58 38 -43 129 -63 186 -40 27 11 128 104 128 117 0 5 -4 15 -9
23 -8 13 -12 13 -27 0 -9 -8 -25 -27 -35 -42 l-17 -29 -7 31 c-10 47 2 85 35
110 17 12 30 25 30 29 0 8 -64 10 -83 2z"/>
<path d="M5043 655 c-6 -14 -7 -25 -2 -25 5 0 8 -15 6 -34 -1 -19 -6 -34 -12
-33 -5 1 -11 -10 -13 -26 -3 -23 0 -27 19 -24 17 3 26 15 36 48 7 24 10 51 6
59 -4 8 -7 24 -7 34 -1 29 -19 29 -33 1z"/>
<path d="M990 631 c-6 -16 -9 -38 -6 -48 10 -33 64 -56 130 -57 55 -1 61 1 64
21 2 16 -11 33 -55 67 -72 57 -114 62 -133 17z"/>
<path d="M4760 655 c0 -2 10 -10 23 -16 20 -11 21 -11 8 4 -13 16 -31 23 -31
12z"/>
<path d="M518 612 c-22 -4 -23 -16 -2 -47 13 -19 20 -23 34 -15 32 17 5 71
-32 62z"/>
<path d="M1878 611 c-26 -4 -51 -10 -55 -15 -11 -11 32 -44 75 -55 30 -9 42
-7 76 12 49 27 54 40 21 55 -28 13 -43 13 -117 3z"/>
<path d="M4773 610 c-31 -12 -29 -26 5 -42 19 -9 28 -22 30 -43 5 -45 19 -51
26 -12 4 24 1 47 -11 71 -18 39 -18 39 -50 26z"/>
<path d="M1330 581 c-13 -25 7 -46 69 -73 25 -10 51 -25 56 -32 6 -7 36 -15
67 -19 l57 -5 7 32 c12 65 4 79 -56 98 -30 9 -85 17 -122 17 -57 1 -69 -2 -78
-18z"/>
<path d="M5010 481 c0 -6 5 -13 10 -16 6 -3 10 1 10 9 0 9 -4 16 -10 16 -5 0
-10 -4 -10 -9z"/>
<path d="M3050 465 c-5 -101 -4 -152 3 -148 4 2 7 -3 7 -11 0 -21 39 -21 47 0
4 10 0 20 -10 26 -26 14 -22 48 6 48 12 1 32 6 45 14 20 11 21 14 9 25 -9 7
-28 9 -46 6 -28 -5 -33 -2 -46 27 -11 25 -14 28 -15 13z"/>
<path d="M4803 424 c-8 -21 13 -42 28 -27 13 13 5 43 -11 43 -6 0 -13 -7 -17
-16z"/>
<path d="M4840 363 c0 -14 -6 -23 -15 -23 -8 0 -15 -7 -15 -15 0 -8 4 -15 9
-15 5 0 16 -3 24 -6 20 -7 28 41 11 63 -12 17 -13 16 -14 -4z"/>
<path d="M4730 356 c0 -7 -20 -19 -45 -26 -24 -7 -43 -16 -41 -19 3 -4 -9 -8
-27 -9 -17 -2 -35 -7 -41 -11 -6 -5 -14 -9 -18 -8 -3 1 -16 -11 -28 -26 -13
-16 -29 -26 -36 -23 -8 3 -14 -2 -15 -12 -1 -9 -5 -3 -9 13 -4 17 -8 23 -9 14
-1 -21 -25 -31 -39 -17 -6 6 -12 6 -16 -1 -4 -5 -13 -8 -20 -5 -8 3 -17 1 -21
-5 -3 -6 -15 -11 -26 -11 -10 0 -19 -4 -19 -10 0 -5 -4 -10 -10 -10 -5 0 -10
7 -10 15 0 18 -19 20 -25 3 -3 -8 -29 -14 -66 -16 -33 -1 -69 -7 -79 -12 -10
-6 -33 -10 -50 -10 l-31 0 42 -40 c50 -47 85 -52 118 -16 29 30 81 56 113 56
29 0 80 -24 98 -45 23 -27 39 -21 117 45 7 5 35 19 63 30 28 11 60 29 72 40
12 11 30 22 40 26 26 8 62 85 46 96 -19 11 -28 10 -28 -6z"/>
<path d="M5066 309 c20 -22 54 -28 35 -6 -6 8 -9 16 -7 18 2 2 -7 5 -20 5 -24
2 -25 1 -8 -17z"/>
<path d="M3025 280 c13 -88 26 -111 113 -196 l85 -84 286 1 c213 0 280 3 264
11 -14 7 -23 20 -22 32 0 12 3 15 6 8 4 -10 9 -7 20 8 23 33 2 45 -31 19 -26
-21 -27 -21 -44 -3 -35 39 -89 38 -147 -2 -24 -16 -36 -18 -60 -11 -16 5 -36
11 -43 13 -24 7 -8 46 25 64 18 9 30 20 26 24 -11 10 -48 7 -62 -6 -11 -10
-13 -10 -7 0 5 8 -2 12 -23 12 -16 0 -42 5 -58 11 -27 10 -27 11 -9 25 11 8
15 14 10 14 -13 0 -54 -38 -54 -50 0 -17 -36 -11 -53 8 -23 25 -11 58 29 77
41 19 38 31 -10 33 -18 1 -39 3 -46 4 -7 2 -15 -3 -18 -11 -3 -10 2 -12 22 -7
15 4 26 2 26 -4 0 -5 -6 -10 -14 -10 -8 0 -16 -5 -18 -12 -6 -17 -28 0 -28 23
0 10 -4 19 -10 19 -5 0 -10 -9 -10 -19 0 -24 -31 -32 -46 -12 -6 7 -15 12 -21
10 -20 -8 67 -109 111 -130 31 -14 45 -28 49 -45 6 -35 -8 -38 -37 -9 -14 14
-32 25 -41 25 -8 0 -15 6 -15 13 0 12 -39 43 -51 39 -4 0 -17 20 -28 46 -12
26 -33 63 -47 82 l-25 34 6 -44z"/>
<path d="M4782 302 c-13 -2 -26 -10 -29 -18 -3 -7 -20 -23 -39 -35 -41 -25
-42 -32 -7 -48 25 -11 29 -9 75 37 38 37 46 51 36 58 -7 6 -23 8 -36 6z"/>
<path d="M4880 146 c0 -9 7 -16 16 -16 17 0 14 22 -4 28 -7 2 -12 -3 -12 -12z"/>
<path d="M3832 114 c9 -9 21 -13 27 -10 20 13 11 26 -16 26 -25 0 -26 -1 -11
-16z"/>
<path d="M4500 102 c0 -11 9 -27 20 -37 11 -10 20 -29 20 -42 0 -22 3 -23 71
-23 51 0 70 3 67 12 -3 7 -15 15 -29 18 -36 9 -38 40 -2 41 27 0 28 0 5 10
-13 5 -28 6 -33 3 -6 -3 -17 0 -25 7 -8 6 -17 9 -21 6 -3 -3 -18 0 -34 8 -36
19 -39 19 -39 -3z"/>
<path d="M3880 43 c-17 -14 -30 -29 -30 -34 0 -5 45 -9 100 -9 55 0 100 3 100
8 -1 26 -40 49 -98 55 -35 4 -48 1 -72 -20z"/>
<path d="M4270 43 c-14 -2 -31 -13 -38 -23 -12 -19 -9 -20 68 -20 80 0 106 13
50 25 -16 4 -32 11 -35 16 -4 5 -9 8 -13 8 -4 -1 -18 -4 -32 -6z"/>
</g>
</svg>
