<?xml version="1.0" standalone="no"?>
<!DOCTYPE svg PUBLIC "-//W3C//DTD SVG 20010904//EN"
 "http://www.w3.org/TR/2001/REC-SVG-20010904/DTD/svg10.dtd">
<svg version="1.0" xmlns="http://www.w3.org/2000/svg"
 width="780.000000pt" height="450.000000pt" viewBox="0 0 780.000000 450.000000"
 preserveAspectRatio="xMidYMid meet">
<metadata>
Created by potrace 1.15, written by Peter Selinger 2001-2017
</metadata>
<g transform="translate(0.000000,450.000000) scale(0.100000,-0.100000)"
fill="#000000" stroke="none">
<path d="M0 3590 c0 -500 1 -910 3 -910 1 0 58 -3 127 -6 198 -8 360 -23 420
-40 30 -9 75 -22 100 -29 25 -8 77 -16 115 -20 39 -3 92 -8 118 -11 60 -7 73
3 93 72 13 46 21 57 52 73 79 39 131 33 147 -19 9 -29 49 -26 126 9 36 16 91
37 123 46 56 16 59 16 81 -1 13 -11 39 -32 59 -47 38 -31 109 -47 120 -28 9
14 -43 110 -69 127 -11 7 -37 16 -57 19 -24 5 -39 14 -43 26 -7 21 -75 43
-106 34 -11 -4 -27 -15 -37 -25 -27 -28 -59 -34 -64 -13 -3 10 -1 27 3 38 4
11 8 34 8 50 1 17 8 49 16 72 8 23 12 49 9 57 -4 10 2 19 18 25 29 11 42 27
55 66 5 17 16 30 23 30 14 0 19 8 46 73 9 23 20 42 25 42 11 0 89 77 89 88 0
6 18 19 40 29 22 10 40 22 40 27 0 4 11 17 24 27 32 25 86 133 79 158 -3 11
-12 27 -21 36 -33 31 -111 85 -124 85 -29 -1 -49 -29 -58 -85 -11 -69 -29 -99
-72 -121 -30 -15 -32 -15 -45 2 -7 10 -13 24 -13 32 0 33 31 181 52 245 21 66
21 69 4 100 -10 18 -32 49 -48 70 -55 71 -57 116 -6 196 15 25 28 49 28 53 0
15 -43 -13 -98 -63 -55 -51 -103 -79 -134 -79 -21 0 -22 14 -6 73 10 39 9 49
-15 99 -22 49 -50 88 -104 144 -7 7 -13 24 -13 38 0 43 -46 29 -137 -40 -51
-39 -66 -42 -85 -16 -7 10 -29 29 -48 42 -19 13 -41 32 -48 42 -12 17 -40 18
-403 18 l-389 0 0 -910z"/>
<path d="M1855 4487 c61 -37 170 -157 382 -417 34 -41 70 -85 82 -97 40 -42
71 -96 71 -124 0 -18 13 -42 40 -71 22 -23 40 -47 40 -52 0 -5 48 -58 107
-117 95 -97 111 -109 150 -115 29 -4 48 -2 58 6 11 9 33 11 70 6 44 -5 57 -3
61 9 10 24 70 30 115 10 29 -14 45 -16 61 -8 15 6 35 7 55 1 27 -7 39 -5 70
17 45 30 53 31 101 6 20 -10 55 -27 76 -37 31 -15 45 -31 64 -72 20 -45 22
-57 13 -84 -6 -18 -18 -40 -27 -49 -31 -35 -14 -48 99 -73 16 -4 41 -19 55
-35 15 -15 43 -37 62 -49 52 -31 72 -71 69 -138 -3 -56 -2 -57 39 -85 24 -16
60 -38 81 -48 41 -22 51 -37 51 -81 0 -62 -7 -60 219 -60 113 0 213 4 221 10
10 6 15 30 15 87 1 51 7 89 18 109 24 46 81 92 129 104 75 19 87 28 117 88 31
62 44 72 92 72 24 0 29 4 29 23 0 28 17 47 42 47 10 0 36 -19 58 -42 53 -56
54 -90 5 -119 -36 -22 -59 -51 -48 -63 9 -8 116 -7 128 2 19 13 42 67 49 111
8 54 57 118 104 138 54 22 118 -4 202 -83 62 -59 100 -79 100 -53 0 6 -7 17
-15 26 -9 8 -19 28 -22 44 -5 26 -67 79 -93 79 -19 0 -90 40 -90 50 0 6 5 19
11 29 19 30 4 65 -34 79 -47 17 -90 6 -132 -35 -31 -30 -35 -32 -35 -13 0 17
-6 20 -45 20 -33 0 -45 -4 -45 -14 0 -10 14 -16 43 -19 l42 -4 -42 -1 c-24 -1
-43 -6 -43 -12 0 -5 -12 -10 -27 -10 -21 0 -24 3 -15 12 19 19 14 28 -13 28
-16 0 -25 -6 -25 -16 0 -13 -7 -15 -40 -9 -26 4 -40 3 -40 -4 0 -6 12 -11 26
-11 23 0 24 -2 10 -15 -8 -8 -19 -15 -25 -15 -20 0 -91 -25 -91 -31 0 -6 -19
-13 -55 -20 -5 -1 -29 -13 -53 -26 -23 -13 -46 -22 -50 -19 -5 3 -26 -1 -48
-9 -31 -11 -44 -11 -64 -1 -14 7 -38 19 -55 27 -16 8 -31 20 -31 27 -1 7 -2
16 -3 21 0 5 -10 11 -21 14 -11 3 -20 12 -20 21 0 9 -15 32 -33 50 -25 25 -46
35 -83 41 -39 6 -45 9 -29 16 17 6 17 8 3 8 -10 1 -18 6 -18 12 0 6 -9 22 -20
36 -13 17 -20 41 -20 69 0 45 -14 56 -37 33 -8 -8 -13 -5 -18 10 -9 30 -37 26
-57 -9 -20 -35 -44 -47 -67 -33 -25 15 -81 -3 -81 -27 0 -11 -4 -20 -10 -20
-5 0 -10 5 -10 10 0 6 -9 10 -20 10 -12 0 -20 -7 -20 -16 0 -9 -8 -23 -17 -30
-12 -9 -14 -13 -5 -14 7 0 10 -4 7 -10 -9 -15 -25 -12 -25 5 0 11 -11 15 -40
15 -29 0 -40 -4 -40 -15 0 -22 -17 -18 -30 5 -9 17 -18 20 -51 16 -26 -3 -44
1 -54 10 -8 9 -19 13 -25 9 -5 -3 -7 0 -4 8 7 20 -43 66 -66 60 -10 -3 -21 0
-24 6 -5 7 3 11 18 11 33 0 34 16 2 24 -26 6 -47 47 -28 54 7 2 3 19 -9 45
-13 30 -19 65 -19 120 0 62 -3 77 -15 77 -11 0 -15 -12 -15 -51 0 -31 -4 -48
-10 -44 -5 3 -10 28 -10 55 0 45 3 51 30 65 16 8 34 24 40 35 7 13 21 20 42
20 l31 0 -7 61 c-3 34 -6 70 -6 80 0 11 -6 19 -14 19 -9 0 -15 14 -18 40 -3
30 0 40 11 40 7 0 25 12 38 27 19 19 27 23 33 13 10 -17 31 -4 24 15 -4 8 -10
12 -15 9 -5 -3 -9 0 -9 5 0 6 -12 11 -27 12 l-28 1 25 7 c14 5 29 4 35 -1 5
-4 23 -8 40 -8 28 1 29 1 11 15 -11 8 -28 15 -38 15 -10 0 -18 5 -18 10 0 6
-15 10 -34 10 -38 0 -55 14 -29 24 9 4 20 2 23 -5 6 -8 9 -8 14 0 4 6 -5 16
-21 23 -15 7 -40 25 -56 40 l-27 28 -738 -1 c-575 0 -733 -3 -717 -12z"/>
<path d="M3541 4474 c17 -16 37 -26 60 -26 40 -1 78 -26 79 -50 0 -31 72 -24
110 11 18 16 45 32 61 35 16 3 29 11 29 19 0 7 12 18 28 24 21 8 -21 11 -183
12 l-210 1 26 -26z"/>
<path d="M5002 4460 c0 -22 4 -40 9 -40 6 0 6 -8 -1 -20 -8 -15 -8 -20 2 -21
29 -2 124 0 136 3 8 1 19 -6 25 -17 7 -11 26 -33 44 -50 18 -16 37 -43 43 -60
9 -22 13 -26 20 -15 5 8 7 17 4 21 -2 4 5 9 16 12 11 3 20 12 20 21 0 8 11 35
24 58 13 24 31 67 39 96 l16 52 -198 0 -199 0 0 -40z"/>
<path d="M5839 4482 c-23 -24 -37 -71 -53 -182 -32 -205 -47 -298 -62 -360 -8
-36 -22 -95 -29 -132 -23 -107 -94 -355 -131 -456 -18 -52 -47 -111 -64 -132
-16 -21 -30 -41 -30 -45 0 -3 21 -15 48 -27 68 -29 82 -45 82 -89 0 -33 4 -41
33 -55 48 -25 65 -43 73 -78 9 -42 104 -165 104 -134 0 5 7 8 15 4 8 -3 15 -2
15 3 0 9 35 21 80 27 30 4 123 21 165 29 45 9 70 37 56 63 -13 24 -95 82 -117
82 -9 0 -22 7 -30 15 -9 8 -27 18 -42 22 -15 3 -33 12 -40 20 -7 7 -19 13 -25
13 -7 0 -30 16 -52 35 -22 19 -43 35 -46 35 -9 0 -27 49 -33 92 -3 28 0 41 12
50 45 34 64 98 28 98 -8 0 -23 15 -33 33 -20 33 -16 52 16 90 7 9 10 25 7 35
-8 25 4 59 14 42 5 -9 10 -5 15 10 4 12 3 25 -2 29 -16 11 -42 95 -44 141 0
25 3 61 9 82 5 20 7 67 5 105 -5 66 -4 69 27 103 31 34 32 36 25 95 -4 33 -7
74 -7 90 1 32 46 178 53 171 2 -2 4 18 4 45 0 53 -15 63 -46 31z"/>
<path d="M7361 4417 c-58 -201 -147 -443 -261 -712 -56 -132 -108 -256 -115
-275 -7 -19 -29 -69 -48 -110 -19 -41 -50 -113 -70 -160 -19 -47 -56 -121 -83
-165 -26 -44 -65 -113 -86 -153 -32 -62 -36 -77 -26 -95 9 -18 8 -23 -8 -32
-60 -33 -154 -160 -154 -207 0 -14 8 -18 39 -18 31 0 43 -6 59 -27 l21 -28 31
30 c31 30 32 30 46 10 10 -13 13 -31 9 -51 -4 -25 0 -36 22 -59 61 -60 123
-53 172 20 l29 43 -40 5 c-53 7 -65 20 -46 49 9 14 13 37 10 61 -3 31 -1 37
14 37 18 1 18 1 2 14 -10 7 -18 25 -18 39 0 14 -5 29 -11 32 -6 4 -8 13 -5 21
3 7 1 16 -4 19 -6 4 -10 10 -10 14 0 5 201 11 448 15 246 3 464 9 485 12 l37
6 0 57 c0 65 -9 74 -85 86 -22 3 -56 14 -76 23 -74 34 -121 170 -66 191 36 14
112 30 172 37 l55 7 0 673 0 674 -207 0 -208 0 -24 -83z"/>
<path d="M2231 3675 c-23 -23 -126 -54 -138 -42 -2 3 -13 -2 -23 -10 -18 -16
-18 -17 6 -49 23 -30 25 -42 29 -166 9 -279 -18 -516 -72 -612 -14 -26 -14
-29 3 -46 17 -17 40 -19 207 -21 156 -2 192 -5 207 -18 36 -31 146 -409 135
-462 -9 -40 -34 -56 -101 -62 -77 -8 -89 -13 -103 -43 -6 -13 -22 -29 -36 -34
-20 -8 -25 -16 -25 -44 0 -42 -28 -66 -77 -66 -26 0 -36 6 -48 31 -11 20 -21
29 -31 25 -9 -3 -22 -6 -29 -6 -9 0 -13 -14 -12 -47 2 -43 -1 -49 -31 -68 -27
-17 -32 -25 -28 -50 4 -31 -8 -64 -28 -77 -13 -9 -27 99 -15 122 9 19 -18 154
-31 158 -6 2 -10 10 -10 18 0 8 -4 14 -10 14 -5 0 -10 -9 -10 -20 0 -11 -4
-20 -9 -20 -15 0 -20 15 -11 30 13 21 -24 66 -62 75 -74 16 -123 11 -165 -18
-33 -23 -47 -27 -79 -22 -56 8 -85 -11 -109 -72 -12 -28 -27 -58 -34 -67 -8
-9 -21 -31 -30 -49 -24 -48 -73 -47 -156 5 -11 7 -35 22 -52 33 -40 24 -41 32
-5 46 25 10 26 11 8 24 -10 8 -15 18 -12 24 10 15 -10 22 -23 8 -21 -26 -86
-41 -122 -28 -42 14 -60 14 -57 -1 2 -7 -8 -14 -22 -16 -26 -4 -99 -50 -142
-90 -26 -24 -29 -24 -84 -13 -32 6 -67 20 -79 31 -12 11 -33 20 -48 20 -31 0
-33 6 -11 49 27 55 -17 71 -50 19 -7 -12 7 -65 52 -199 79 -234 132 -416 132
-450 0 -23 -13 -34 -112 -89 -205 -114 -361 -212 -386 -243 -11 -13 -10 -16 7
-22 12 -3 21 -13 21 -21 0 -8 10 -14 25 -14 15 0 25 6 25 14 0 20 40 32 51 15
5 -8 9 -20 9 -27 0 -8 7 -11 18 -8 9 3 38 8 64 12 26 3 45 10 42 15 -7 12 20
11 32 -1 11 -11 84 6 84 20 0 5 19 15 42 22 24 7 53 21 65 32 21 18 22 26 18
111 l-4 93 37 24 c20 13 49 29 64 36 18 7 34 26 44 51 13 33 21 40 47 43 44 4
47 33 8 69 -22 19 -31 37 -31 58 0 29 3 31 35 31 19 0 35 5 35 10 0 6 11 8 25
4 25 -6 34 6 74 109 9 22 15 26 34 22 38 -10 77 11 83 45 4 19 13 30 23 30 9
0 21 4 26 9 20 17 72 20 94 5 28 -20 27 -40 -4 -60 -33 -21 -32 -57 1 -97 21
-25 23 -33 12 -41 -17 -14 -39 -62 -31 -70 12 -11 20 -6 31 19 11 23 16 25 51
19 31 -5 50 -1 83 16 47 24 100 23 226 -6 40 -9 84 -12 118 -8 62 8 72 -7 29
-44 -53 -46 -18 -57 47 -16 66 42 161 84 189 84 30 0 75 43 84 80 5 22 0 30
-35 53 -23 15 -55 27 -71 27 -38 0 -39 25 -1 35 57 15 79 17 152 18 41 1 89
-5 105 -12 17 -7 57 -14 89 -17 66 -4 162 -29 171 -44 3 -6 17 -10 30 -10 13
0 27 -5 30 -10 4 -6 14 -8 23 -6 10 3 55 1 102 -5 47 -6 137 -12 201 -15 l116
-5 22 61 c18 49 40 80 107 150 80 85 84 91 84 135 0 80 42 130 153 180 82 37
121 41 154 15 l28 -22 3 30 c2 23 7 29 21 25 15 -4 20 4 26 44 4 26 10 43 12
36 7 -19 50 6 62 36 28 72 10 97 -40 54 -9 -7 -18 -10 -22 -7 -3 3 -3 -3 0
-15 3 -13 1 -21 -7 -21 -7 0 -10 -7 -6 -15 3 -8 1 -15 -5 -15 -7 0 -9 10 -5
24 5 21 1 28 -28 41 -19 9 -43 14 -53 11 -37 -11 -151 20 -205 56 -94 62 -109
68 -154 56 -60 -16 -109 -3 -141 37 -33 42 -48 43 -93 10 -19 -14 -38 -25 -44
-25 -5 0 -21 -14 -35 -31 -29 -34 -51 -38 -121 -21 -25 6 -66 15 -93 21 -26 6
-66 24 -89 41 -28 21 -53 30 -78 30 -43 0 -108 45 -102 71 6 30 -16 69 -40 69
-13 1 -33 9 -46 20 -31 26 -21 55 26 78 25 11 40 27 47 48 6 17 22 49 38 70
15 22 27 46 27 53 0 7 17 29 37 47 l37 34 -19 55 c-14 41 -16 61 -8 78 5 12
15 38 22 57 l11 35 -87 84 c-49 46 -107 96 -129 112 -23 16 -61 47 -84 69 -23
22 -47 40 -53 39 -7 0 -23 -11 -36 -24z"/>
<path d="M4105 2574 l-49 -26 -38 22 c-73 41 -112 8 -64 -55 30 -39 32 -53 11
-81 -8 -10 -15 -28 -15 -40 0 -11 -7 -29 -15 -40 -8 -10 -15 -33 -15 -50 0
-26 11 -41 68 -91 58 -51 75 -61 127 -71 122 -23 119 -23 173 11 28 18 52 37
52 43 0 7 8 11 18 10 10 0 18 7 18 19 1 11 3 34 4 50 2 29 2 29 9 5 7 -22 8
-21 13 15 3 22 1 41 -3 43 -4 2 -6 9 -3 17 3 7 1 16 -5 20 -6 3 -15 -4 -20
-17 -6 -13 -10 -17 -10 -9 -1 10 -4 11 -15 2 -9 -8 -16 -8 -20 -2 -4 6 5 18
19 27 30 20 32 33 5 31 -11 -1 -20 -5 -20 -9 0 -15 -28 -8 -34 8 -10 26 -7 36
8 31 11 -4 13 -1 9 10 -4 11 -2 14 5 9 16 -9 15 7 0 22 -8 8 -9 12 -1 12 13 0
10 47 -4 61 -7 7 -9 1 -6 -18 4 -27 4 -27 -11 -9 -9 11 -16 23 -16 28 0 4 -7
5 -15 2 -8 -4 -22 -1 -30 6 -10 8 -15 9 -15 2 0 -6 13 -19 29 -28 19 -11 27
-23 24 -33 -4 -14 -4 -14 6 -1 6 8 11 13 12 10 5 -18 7 -60 3 -60 -14 0 -54
47 -55 64 0 20 -1 20 -11 -1 -15 -32 -23 -29 -38 17 -7 22 -19 40 -27 40 -7 0
-13 5 -13 10 0 12 10 13 30 1 8 -6 18 -7 23 -4 11 7 -12 23 -34 23 -9 0 -38
-12 -64 -26z"/>
<path d="M5535 2505 c-19 -8 -41 -32 -60 -66 -36 -63 -69 -81 -111 -58 -21 11
-28 11 -31 2 -3 -7 -10 -13 -17 -13 -7 0 -30 -13 -51 -30 -21 -17 -50 -30 -65
-30 -15 0 -40 -6 -55 -14 -17 -9 -36 -11 -53 -6 -15 4 -45 2 -67 -4 -61 -17
-91 -9 -121 30 -14 18 -30 31 -36 28 -5 -3 -23 5 -41 19 -18 13 -45 27 -62 31
-16 4 -44 22 -60 42 l-31 35 -49 -21 c-72 -31 -115 -54 -115 -61 0 -4 -18 -14
-40 -23 -50 -20 -51 -36 -2 -36 41 0 142 -43 142 -60 0 -6 12 -9 26 -8 22 2
29 -3 38 -29 9 -26 14 -30 29 -22 9 6 36 9 60 7 36 -3 44 -7 57 -35 9 -20 23
-33 34 -33 13 0 17 -5 13 -17 -2 -10 -6 -24 -8 -32 -3 -9 11 -18 43 -26 86
-23 111 -44 125 -105 7 -33 8 -59 3 -65 -15 -18 10 -35 51 -35 42 0 69 -8 69
-21 0 -5 -23 -21 -50 -37 l-50 -29 55 -37 c42 -28 55 -42 55 -61 0 -18 -5 -25
-20 -25 -15 0 -20 -7 -20 -24 0 -14 -4 -28 -10 -31 -39 -24 35 -30 195 -16
206 18 333 55 387 113 23 25 28 27 41 13 8 -8 25 -46 37 -85 18 -59 25 -70 40
-65 11 3 20 0 23 -9 7 -18 -25 -45 -86 -75 -80 -39 -114 -130 -70 -188 19 -26
26 -28 89 -28 98 -1 118 8 110 46 -4 19 -1 31 7 33 100 27 118 28 175 8 31
-11 69 -23 84 -26 14 -3 51 -26 82 -52 l56 -45 10 26 c12 32 35 41 65 25 56
-30 77 20 51 123 -12 46 -15 72 -8 80 6 7 12 26 14 42 3 27 0 30 -29 33 -28 3
-33 8 -39 38 -3 19 -4 37 -1 40 8 9 66 -37 72 -57 3 -9 15 -19 25 -22 21 -6
23 -15 24 -127 l1 -65 32 -3 c18 -2 48 4 68 14 19 9 46 14 60 12 14 -3 25 -1
25 3 0 5 16 26 35 48 31 34 35 44 35 95 0 31 3 56 8 56 4 0 6 -42 4 -93 l-4
-93 36 -47 c25 -32 36 -58 36 -80 0 -36 15 -57 40 -57 13 0 20 17 29 71 16 89
26 84 12 -7 -12 -81 -1 -114 37 -101 4 1 7 7 8 12 2 41 28 145 36 145 7 0 8
-13 4 -32 -4 -18 -10 -61 -13 -96 -5 -53 -4 -62 11 -62 9 0 16 2 16 4 0 2 9
46 19 97 11 52 21 108 24 124 7 42 24 82 38 91 9 5 10 0 5 -20 -10 -42 -38
-216 -42 -266 -6 -66 9 -27 40 104 24 106 38 137 53 123 7 -7 -6 -79 -30 -162
-19 -67 -13 -85 28 -85 43 0 51 13 54 83 2 57 -9 74 -27 41 -15 -28 -23 1 -16
58 7 49 12 58 65 105 6 4 21 24 35 43 l24 34 -6 -34 c-4 -19 -13 -53 -21 -74
-12 -36 -12 -41 8 -59 19 -18 22 -18 36 -4 14 13 14 24 4 76 -8 43 -9 66 -1
80 5 11 10 33 10 48 0 16 7 38 15 49 19 25 19 38 0 30 -11 -4 -15 1 -15 19 0
35 -23 31 -43 -7 -10 -21 -16 -27 -16 -16 -1 11 -16 24 -37 33 -47 19 -65 19
-57 0 3 -9 -2 -22 -13 -30 -23 -16 -37 -9 -31 16 6 22 -1 23 -40 8 -15 -6 -39
-13 -53 -14 -14 -1 -45 -6 -70 -11 -25 -6 -65 -7 -90 -3 -25 4 -64 8 -87 8
-69 1 -152 38 -203 91 l-46 47 -81 -6 c-56 -4 -87 -11 -100 -23 -14 -13 -40
-18 -116 -19 -89 -2 -99 0 -122 21 -13 12 -27 37 -30 54 -12 57 -16 66 -34 66
-24 0 -39 -19 -47 -56 -3 -16 -16 -42 -30 -57 l-24 -28 -42 21 c-23 11 -54 20
-69 20 -33 0 -40 15 -44 106 -4 66 -7 74 -39 106 -62 62 -45 135 51 222 32 29
41 46 51 93 6 32 14 67 17 78 3 11 1 26 -4 34 -8 12 -15 12 -45 -3 -40 -19
-56 -14 -95 28 -14 14 -29 26 -36 26 -6 0 -26 13 -45 30 -40 33 -36 32 -75 15z"/>
<path d="M6355 2465 c-56 -16 -193 -17 -213 -2 -23 18 -25 -1 -3 -32 18 -25
30 -31 79 -36 31 -4 77 -11 100 -16 36 -8 57 -5 113 13 68 22 70 23 67 52 -3
29 -6 31 -48 33 -25 1 -67 -5 -95 -12z"/>
<path d="M4570 1629 c-18 -34 -72 -89 -82 -83 -4 3 -8 1 -8 -5 0 -6 -14 -26
-31 -45 -29 -34 -30 -36 -14 -58 l16 -23 -3 25 c-3 22 1 24 34 25 26 1 43 8
57 26 12 14 20 19 21 10 0 -10 3 -11 14 -2 8 7 41 14 73 16 42 4 54 2 43 -5
-11 -8 -7 -9 15 -3 17 4 60 7 98 7 37 0 67 4 67 8 0 4 -1 8 -3 8 -27 0 -215
33 -228 41 -11 5 -27 26 -38 46 l-18 37 -13 -25z"/>
<path d="M3257 1576 c-3 -7 5 -44 18 -82 12 -38 32 -103 44 -144 11 -41 32
-115 46 -165 14 -49 25 -102 25 -117 0 -31 -7 -33 -102 -28 -26 1 -62 -4 -82
-11 -27 -10 -38 -10 -49 0 -9 7 -18 8 -21 2 -7 -11 -87 -2 -101 12 -7 7 -6 8
3 3 6 -4 12 -3 12 2 0 16 -63 20 -78 6 -17 -17 -34 -18 -50 -2 -20 20 -38 -6
-25 -34 10 -22 -7 -101 -30 -135 -11 -17 3 -16 17 1 6 7 25 16 41 19 17 4 24
4 18 1 -18 -8 -16 -34 2 -34 8 0 14 3 13 8 -4 9 42 55 48 49 10 -10 12 -47 3
-52 -5 -4 -7 -11 -3 -16 3 -6 -3 -13 -14 -16 -11 -3 -19 -10 -16 -17 3 -7 -7
-18 -21 -24 -15 -7 -23 -17 -19 -23 3 -6 0 -15 -7 -20 -11 -7 -11 -11 -1 -17
15 -10 70 -3 78 9 7 12 24 12 24 0 0 -5 -8 -12 -17 -14 -14 -4 -12 -5 5 -6 14
-1 22 -7 22 -18 0 -15 2 -16 10 -3 5 8 10 11 10 5 0 -5 -5 -17 -10 -25 -8 -13
-11 -12 -16 7 -3 12 -16 23 -30 26 -26 5 -42 -8 -22 -17 7 -3 -3 -3 -22 0 -19
4 -40 11 -47 16 -7 5 -18 8 -25 5 -8 -4 -7 -6 5 -6 24 -1 22 -31 -2 -31 -11 0
-23 -4 -26 -10 -3 -6 1 -10 10 -10 8 0 23 -9 32 -20 10 -11 22 -20 28 -20 6 0
6 3 -1 8 -6 4 -14 17 -18 28 -5 17 -2 23 15 27 16 4 19 3 10 -6 -6 -6 -11 -18
-11 -26 0 -11 3 -10 14 4 8 12 19 16 31 12 14 -6 15 -10 5 -22 -8 -10 -9 -15
-2 -15 6 0 14 5 17 10 3 5 14 10 23 10 15 0 15 -2 2 -10 -9 -6 -10 -10 -3 -10
6 0 15 5 18 10 4 6 11 8 16 4 5 -3 7 -10 4 -15 -4 -5 -2 -9 4 -9 5 0 13 5 16
10 3 6 12 10 18 10 9 0 9 -2 0 -8 -9 -6 -8 -12 6 -24 14 -12 22 -13 30 -5 8 8
11 6 11 -6 0 -9 4 -17 10 -17 5 0 7 7 3 16 -5 13 -2 15 18 9 20 -6 22 -5 12 6
-7 7 -13 18 -13 24 1 5 10 -1 20 -14 11 -13 20 -18 20 -11 0 10 3 10 15 0 12
-10 15 -10 15 1 0 9 3 10 8 3 12 -18 42 -24 62 -12 16 11 22 9 35 -7 9 -11 14
-14 10 -7 -3 6 0 12 7 13 7 1 22 2 33 3 11 0 28 -2 38 -7 9 -4 17 -4 17 1 0 4
21 7 48 5 26 -3 55 -4 65 -4 9 0 17 -4 17 -10 0 -5 5 -9 10 -9 6 0 10 7 10 16
0 13 3 14 14 5 9 -8 16 -8 20 -2 4 6 13 8 20 5 8 -3 17 0 21 5 3 6 10 9 15 6
5 -3 71 -8 147 -11 155 -6 308 -13 400 -17 34 -1 65 -6 69 -9 4 -4 14 -4 23 0
9 5 40 8 68 7 35 0 53 4 53 12 0 6 5 15 11 19 8 5 10 -1 7 -18 -3 -17 0 -25 9
-25 8 0 12 6 9 13 -3 7 8 17 25 23 16 5 29 7 29 4 0 -3 9 2 20 12 11 10 20 13
20 8 0 -6 -7 -14 -16 -17 -8 -3 -12 -11 -8 -17 4 -8 18 0 38 23 35 40 103 66
117 45 4 -5 21 5 38 22 29 28 43 35 63 32 4 0 10 10 14 24 3 14 11 25 17 25 8
0 8 3 1 10 -11 11 -9 24 35 180 12 41 21 88 21 104 0 24 -2 27 -15 16 -20 -17
-32 13 -17 43 8 17 42 153 42 169 0 2 -11 3 -25 3 -22 0 -27 -8 -45 -67 -11
-37 -24 -69 -29 -73 -5 -3 -8 20 -7 51 1 30 -1 57 -5 60 -4 2 -8 -4 -8 -13 0
-10 -14 -70 -31 -133 -44 -165 -80 -328 -80 -362 0 -23 4 -29 15 -24 22 8 18
-10 -7 -33 -25 -24 -72 -25 -62 -1 11 28 15 85 5 75 -5 -6 -11 -23 -13 -40 -2
-19 -9 -30 -18 -30 -21 0 -25 78 -7 129 19 54 54 202 64 271 2 17 11 162 12
217 1 9 7 23 14 30 12 11 12 16 0 26 -11 11 -14 11 -18 0 -6 -19 -62 -267 -70
-310 -3 -21 -10 -38 -15 -38 -12 0 -12 3 1 76 6 32 11 80 12 106 0 36 6 53 24
70 29 27 29 37 -2 67 -14 12 -22 27 -19 32 3 5 -2 9 -10 9 -9 0 -16 -4 -16 -9
0 -5 -5 -22 -10 -36 -9 -23 -13 -25 -25 -15 -8 7 -15 21 -15 32 0 10 -4 16
-10 13 -5 -3 -10 -1 -10 4 0 24 -22 9 -36 -25 -17 -41 -26 -38 -56 23 -10 21
-16 30 -13 20 4 -15 2 -16 -16 -6 -11 6 -23 8 -27 5 -3 -3 -1 -6 4 -6 6 0 8
-16 6 -35 -7 -55 -21 -41 -16 16 3 44 2 50 -13 45 -9 -4 -41 -9 -72 -12 -49
-5 -59 -3 -75 15 -27 30 -94 28 -164 -5 -65 -31 -105 -28 -164 11 -33 22 -39
31 -34 50 9 34 -5 37 -49 14 -37 -20 -39 -20 -48 -2 -15 27 -83 93 -96 93 -7
0 -10 -4 -7 -9 23 -37 -148 -59 -199 -25 -34 22 -75 26 -67 6 4 -12 -3 -11
-30 6 -41 25 -64 28 -71 8z"/>
<path d="M5033 1464 c-7 -7 -13 -21 -13 -31 0 -15 -2 -16 -10 -3 -7 12 -12 7
-24 -22 -34 -79 -40 -122 -25 -154 13 -25 13 -37 3 -74 -46 -165 -54 -196 -54
-218 0 -21 2 -22 15 -12 9 8 15 8 15 2 0 -16 54 2 77 25 41 41 52 64 46 101
-4 24 -2 38 8 46 8 7 14 30 14 59 1 42 5 51 39 82 41 36 44 68 6 58 -16 -4
-87 10 -107 22 -2 1 4 25 13 54 18 61 16 87 -3 65z"/>
<path d="M4727 1299 c-2 -13 -19 -79 -36 -146 -51 -202 -78 -404 -42 -318 7
17 18 56 24 88 7 31 15 57 19 57 5 0 8 11 8 24 0 14 5 37 10 52 6 15 13 49 16
77 3 28 10 60 14 72 5 14 5 26 -2 33 -6 6 -6 16 3 29 8 14 9 25 2 38 -9 16
-11 15 -16 -6z"/>
<path d="M2713 941 c-24 -10 -33 -21 -33 -38 0 -15 -8 -27 -22 -32 -13 -5 -51
-21 -85 -35 -89 -36 -147 -42 -220 -21 -60 17 -63 17 -90 -3 -58 -40 -183
-102 -208 -102 -14 0 -37 -7 -51 -16 -24 -16 -28 -16 -72 4 -63 28 -78 31
-142 33 -113 2 -160 28 -249 137 l-52 62 -75 0 c-60 0 -76 -3 -81 -16 -4 -10
1 -22 10 -29 10 -7 17 -20 17 -30 0 -13 -5 -16 -22 -10 -59 18 -79 17 -103 -5
-12 -12 -42 -24 -65 -27 -36 -5 -42 -3 -47 16 -3 11 -12 21 -20 21 -20 0 -56
-20 -66 -36 -4 -8 -15 -14 -24 -14 -17 0 -139 100 -161 131 -15 22 -37 24 -71
5 -19 -10 -20 -14 -8 -19 23 -9 115 -214 121 -267 0 -8 6 -18 12 -22 7 -4 15
-29 19 -55 4 -27 11 -53 16 -60 6 -6 12 -37 13 -68 4 -55 3 -56 -20 -51 -14 4
-24 2 -24 -4 0 -5 -13 -10 -29 -10 -16 0 -41 -4 -55 -10 -19 -7 -24 -6 -20 4
4 10 -11 13 -65 12 -57 -2 -66 0 -53 11 15 11 15 12 -3 13 -16 0 -17 2 -5 10
9 6 18 6 24 0 13 -13 26 -13 26 -1 0 13 -34 23 -53 16 -8 -4 -17 -15 -20 -26
-3 -10 -13 -19 -22 -19 -9 0 -13 4 -10 10 10 15 -11 12 -24 -4 -21 -25 -73
-31 -87 -11 -11 14 -16 15 -27 6 -22 -17 -49 -3 -37 19 9 17 5 18 -47 18 -46
-1 -61 -5 -81 -25 -28 -28 -44 -22 -17 7 22 24 8 26 -42 5 -41 -17 -63 -19
-63 -5 0 6 7 10 17 10 9 0 14 3 11 6 -6 5 -82 -18 -115 -35 -10 -5 -39 -17
-65 -26 l-48 -17 0 -174 0 -174 1305 0 c784 0 1305 4 1305 9 0 5 -6 12 -12 15
-7 3 -1 4 15 2 26 -3 32 3 27 33 -1 8 2 17 7 20 4 3 18 26 30 51 20 41 34 111
64 312 5 37 17 91 25 120 9 29 19 78 23 108 3 30 11 62 16 70 5 8 8 26 6 38
-1 15 6 32 19 44 l22 21 -26 16 c-15 9 -30 29 -34 45 -11 43 -39 56 -79 37z"/>
<path d="M5738 803 c-22 -6 -34 -49 -19 -67 7 -8 23 -17 36 -20 21 -6 23 -9
15 -32 -21 -55 45 -99 82 -54 29 35 23 83 -14 127 -48 56 -54 58 -100 46z"/>
<path d="M5046 567 c66 -205 99 -344 104 -437 4 -68 3 -70 -38 -70 -21 0 -42
-4 -47 -9 -6 -4 -27 -11 -47 -14 -27 -4 -38 -2 -42 9 -3 9 -11 12 -17 9 -5 -4
-26 -7 -44 -7 -25 0 -38 -6 -50 -24 l-15 -24 1088 0 1088 0 26 97 c15 54 30
116 34 138 3 22 12 54 20 70 15 36 44 149 44 175 0 25 -32 30 -165 27 -109 -2
-111 -2 -159 31 -27 17 -57 32 -65 32 -27 0 -135 -56 -160 -84 -14 -14 -29
-26 -34 -26 -5 0 -29 -14 -54 -30 -24 -17 -60 -37 -78 -44 -41 -17 -64 -53
-40 -62 8 -3 15 -15 15 -26 0 -16 -5 -19 -22 -14 -13 3 -26 6 -29 6 -4 0 -9 9
-12 19 -2 10 -16 27 -31 36 -24 16 -27 16 -52 -4 -34 -27 -60 -27 -76 0 -7 11
-34 32 -60 45 -27 13 -48 28 -48 32 0 19 -91 53 -132 51 -26 -2 -43 1 -46 9
-2 6 1 12 7 12 17 0 13 50 -4 56 -16 6 -64 -24 -107 -66 -24 -23 -39 -28 -109
-33 -61 -5 -88 -3 -109 8 -17 9 -41 12 -62 8 -23 -3 -44 0 -59 10 -13 8 -50
17 -81 21 -79 8 -104 22 -133 73 l-26 43 -93 -1 -93 -1 13 -41z"/>
</g>
</svg>
